HIERARCHY
ROOT hip
{
	OFFSET 0.000000 0.000000 0.000000
	CHANNELS 6 Xposition Yposition Zposition Xrotation Zrotation Yrotation 
	JOINT abdomen
	{
		OFFSET 0.000000 3.422050 0.000000
		CHANNELS 3 Xrotation Zrotation Yrotation 
		JOINT chest
		{
			OFFSET 0.000000 8.486693 -0.684411
			CHANNELS 3 Xrotation Zrotation Yrotation 
			JOINT neck
			{
				OFFSET 0.000000 10.266162 -0.273764
				CHANNELS 3 Xrotation Zrotation Yrotation 
				JOINT head
				{
					OFFSET 0.000000 3.148285 0.000000
					CHANNELS 3 Xrotation Zrotation Yrotation 
					End Site
					{
						OFFSET 0.000000 3.148289 0.000000
					}
				}
			}
			JOINT lCollar
			{
				OFFSET 3.422053 6.707223 -0.821293
				CHANNELS 3 Yrotation Zrotation Xrotation 
				JOINT lShldr
				{
					OFFSET 3.285171 0.000000 0.000000
					CHANNELS 3 Zrotation Yrotation Xrotation 
					JOINT lForeArm
					{
						OFFSET 10.129278 0.000000 0.000000
						CHANNELS 3 Yrotation Zrotation Xrotation 
						JOINT lHand
						{
							OFFSET 8.486692 0.000000 0.000000
							CHANNELS 3 Zrotation Yrotation Xrotation 
							End Site
							{
								OFFSET 4.106464 0.000000 0.000000
							}
						}
					}
				}
			}
			JOINT rCollar
			{
				OFFSET -3.558935 6.707223 -0.821293
				CHANNELS 3 Yrotation Zrotation Xrotation 
				JOINT rShldr
				{
					OFFSET -3.148289 0.000000 0.000000
					CHANNELS 3 Zrotation Yrotation Xrotation 
					JOINT rForeArm
					{
						OFFSET -10.266159 0.000000 0.000000
						CHANNELS 3 Yrotation Zrotation Xrotation 
						JOINT rHand
						{
							OFFSET -8.349810 0.000000 0.000000
							CHANNELS 3 Zrotation Yrotation Xrotation 
							End Site
							{
								OFFSET -4.106464 0.000000 0.000000
							}
						}
					}
				}
			}
		}
	}
	JOINT lThigh
	{
		OFFSET 5.338403 -1.642589 1.368821
		CHANNELS 3 Xrotation Zrotation Yrotation 
		JOINT lShin
		{
			OFFSET -2.053232 -20.121670 0.000000
			CHANNELS 3 Xrotation Zrotation Yrotation 
			JOINT lFoot
			{
				OFFSET 0.000000 -19.300380 -1.231939
				CHANNELS 3 Xrotation Yrotation Zrotation 
				End Site
				{
					OFFSET 0.000000 -2.463878 4.653993
				}
			}
		}
	}
	JOINT rThigh
	{
		OFFSET -5.338403 -1.642589 1.368821
		CHANNELS 3 Xrotation Zrotation Yrotation 
		JOINT rShin
		{
			OFFSET 2.053232 -20.121670 0.000000
			CHANNELS 3 Xrotation Zrotation Yrotation 
			JOINT rFoot
			{
				OFFSET 0.000000 -19.300380 -1.231939
				CHANNELS 3 Xrotation Yrotation Zrotation 
				End Site
				{
					OFFSET 0.000000 -2.463878 4.653993
				}
			}
		}
	}
}
MOTION
Frames: 6
Frame Time: 0.049989
0.254513 17.780653 22.637587 0.000000 0.000000 180.000000 17.973604 0.017477 -0.030643 4.383877 0.999477 -0.038588 37.081474 0.000000 0.000000 -43.535664 0.000000 0.000000 15.972742 -12.182920 -40.269039 -72.047028 -31.302525 9.570881 -111.863228 -5.298138 52.388588 -14.244508 -5.513170 -15.756647 -21.055645 16.195690 -24.189705 69.106926 23.657158 6.916135 104.329887 10.864314 -4.414204 19.619394 -29.578066 -3.919458 -5.734788 5.196885 -0.007514 99.461792 5.005348 -0.068894 62.655251 7.274901 6.980556 -6.536191 -6.002829 -0.002344 100.463585 -4.999827 -0.001698 62.390118 -7.058055 -6.063511 
0.253712 17.825909 22.557886 0.000000 0.000000 180.000000 17.307417 0.017498 -0.030485 6.569880 0.999591 -0.038717 35.157768 0.000000 0.000000 -43.069031 0.000000 0.000000 16.969820 -12.354198 -41.274639 -72.334419 -31.493275 9.975709 -112.560364 -5.443073 52.356808 -13.811549 -4.829353 -16.609575 -21.380621 16.267542 -24.921183 69.268959 23.774849 7.107930 104.329887 10.864314 -4.414204 19.367638 -29.429445 -4.389060 -5.468698 5.396806 -0.013152 98.928734 5.009015 -0.135647 62.471191 7.287324 6.850107 -6.069470 -6.002762 -0.002179 99.930496 -4.999897 -0.001734 62.228558 -7.076769 -5.939559 
0.252911 17.871164 22.478188 0.000000 0.000000 180.000000 16.640978 0.017520 -0.030326 8.764791 0.999711 -0.038843 33.228008 0.000000 0.000000 -42.602322 0.000000 0.000000 17.966427 -12.542943 -42.279827 -72.624046 -31.682322 10.382543 -113.258034 -5.587667 52.323223 -13.388791 -4.138448 -17.457432 -21.704943 16.343420 -25.652975 69.431595 23.892056 7.300275 104.329887 10.864314 -4.414204 19.114769 -29.282579 -4.858894 -5.202512 5.596768 -0.017860 98.395569 5.012064 -0.202448 62.287151 7.300164 6.719690 -5.602665 -6.002697 -0.002015 99.397285 -4.999968 -0.001771 62.067009 -7.095830 -5.815649 
0.252110 17.916420 22.398489 0.000000 0.000000 180.000000 15.974339 0.017544 -0.030168 10.967038 0.999836 -0.038964 31.293280 0.000000 0.000000 -42.135555 0.000000 0.000000 18.961946 -12.749074 -43.283985 -72.915855 -31.869629 10.791368 -113.956207 -5.731899 52.287849 -12.976295 -3.440769 -18.300241 -22.028532 16.423307 -26.384989 69.594810 24.008764 7.493165 104.329887 10.864314 -4.414204 18.860821 -29.137482 -5.328932 -4.936230 5.796765 -0.021636 97.862274 5.014493 -0.269287 62.103134 7.313420 6.589305 -5.135791 -6.002635 -0.001849 98.863960 -5.000038 -0.001807 61.905487 -7.115239 -5.691786 
0.251309 17.961676 22.318789 0.000000 0.000000 180.000000 15.307542 0.017570 -0.030011 13.175026 0.999966 -0.039081 29.354671 0.000000 0.000000 -41.668713 0.000000 0.000000 19.955776 -12.972480 -44.286499 -73.209831 -32.055161 11.202179 -114.654846 -5.875731 52.250698 -12.574105 -2.736631 -19.138035 -22.351309 16.507202 -27.117151 69.758606 24.124975 7.686598 104.329887 10.864314 -4.414204 18.605810 -28.994171 -5.799149 -4.669850 5.996789 -0.024478 97.328896 5.016303 -0.336157 61.919136 7.327091 6.458957 -4.668861 -6.002572 -0.001684 98.330559 -5.000109 -0.001842 61.744003 -7.134995 -5.567969 
0.250508 18.006931 22.239090 0.000000 0.000000 180.000000 14.640629 0.017598 -0.029853 15.387134 1.000101 -0.039193 27.413273 0.000000 0.000000 -41.201843 0.000000 0.000000 20.947309 -13.213012 -45.286774 -73.506020 -32.238914 11.614971 -115.353905 -6.019126 52.211777 -12.182271 -2.026355 -19.970846 -22.673176 16.595064 -27.849340 69.922966 24.240673 7.880572 104.329887 10.864314 -4.414204 18.349779 -28.852680 -6.269522 -4.403368 6.196833 -0.026387 96.795448 5.017493 -0.403048 61.735165 7.341178 6.328646 -4.201894 -6.002512 -0.001517 97.797104 -5.000180 -0.001877 61.582558 -7.155096 -5.444202 
